<svg xmlns="http://www.w3.org/2000/svg" width="580" height="345" viewBox="0 0 580 345"><style>@keyframes team-line{0%{stroke-dashoffset:600}50%{stroke-dashoffset:0}}@keyframes team-line-layer0{0%,12%,67%{opacity:0}14%,65%{opacity:1}}@keyframes team-line-layer1{0%,18%,62%{opacity:0}20%,60%{opacity:1}}@keyframes team-line-layer2{0%,28%,52%{opacity:0}30%,50%{opacity:1}}#Group_16{stroke-dasharray:600;stroke-dashoffset:600;animation:team-line 5s ease .4s infinite}.layer0{opacity:0;animation:team-line-layer0 5s ease .4s infinite}.layer1,.layer2{opacity:0;animation:team-line-layer1 5s ease .4s infinite}.layer2{animation:team-line-layer2 5s ease .4s infinite}</style><g id="Group_17" data-name="Group 17" transform="translate(-73.416 -757.773)"><g id="Group_16" data-name="Group 16" transform="translate(91.221 779.78)"><path id="Path_49" fill="none" stroke="#404040" stroke-linecap="round" stroke-width="7" d="M1348.574,204.348V315.11H1189.319V407.5H1076.207V521.009" class="team-line" data-name="Path 49" transform="translate(-1076.207 -204.348)"/><path id="Path_50" fill="none" stroke="#404040" stroke-linecap="round" stroke-width="7" d="M1076.207,204.348V315.11h159.255V407.5h113.112V521.009" class="team-line" data-name="Path 50" transform="translate(-803.835 -204.348)"/><path id="Path_51" fill="none" stroke="#404040" stroke-linecap="round" stroke-width="7" d="M1076.207,204.348V315.11h159.255V516.2" class="team-line" data-name="Path 51" transform="translate(-803.835 -204.348)"/><path id="Path_52" fill="none" stroke="#404040" stroke-linecap="round" stroke-width="7" d="M1076.207,204.348V315.11h159.255V407.5H1122.045V512.264" class="team-line" data-name="Path 52" transform="translate(-803.835 -204.348)"/><path id="Path_53" fill="none" stroke="#404040" stroke-linecap="round" stroke-width="7" d="M1367.107,204.348V315.11H1207.852V516.332" class="team-line" data-name="Path 53" transform="translate(-1094.74 -204.348)"/></g><ellipse id="Ellipse_28" cx="21" cy="21.5" fill="#f15b44" data-name="Ellipse 28" rx="21" ry="21.5" transform="translate(342.416 757.773)"/><ellipse id="Ellipse_29" cx="19" cy="19.5" fill="#519bf7" class="layer0" data-name="Ellipse 29" rx="19" ry="19.5" transform="translate(505.416 866.773)"/><circle id="Ellipse_33" cx="17.5" cy="17.5" r="17.5" fill="#00aa6a" class="layer1" data-name="Ellipse 33" transform="translate(392.416 964.773)"/><ellipse id="Ellipse_34" cx="17" cy="17.5" fill="#00aa6a" class="layer1" data-name="Ellipse 34" rx="17" ry="17.5" transform="translate(505.416 964.773)"/><ellipse id="Ellipse_35" cx="17" cy="17.5" fill="#00aa6a" class="layer1" data-name="Ellipse 35" rx="17" ry="17.5" transform="translate(619.416 964.773)"/><ellipse id="Ellipse_38" cx="12.5" cy="13" fill="#fcc500" class="layer2" data-name="Ellipse 38" rx="12.5" ry="13" transform="translate(397.416 1076.773)"/><circle id="Ellipse_39" cx="13" cy="13" r="13" fill="#fcc500" class="layer2" data-name="Ellipse 39" transform="translate(509.416 1076.773)"/><circle id="Ellipse_40" cx="13" cy="13" r="13" fill="#fcc500" class="layer2" data-name="Ellipse 40" transform="translate(623.416 1076.773)"/><circle id="Ellipse_30" cx="19.5" cy="19.5" r="19.5" fill="#519bf7" class="layer0" data-name="Ellipse 30" transform="translate(187.416 866.773)"/><ellipse id="Ellipse_31" cx="17" cy="17.5" fill="#00aa6a" class="layer1" data-name="Ellipse 31" rx="17" ry="17.5" transform="translate(187.416 964.773)"/><ellipse id="Ellipse_32" cx="17" cy="17.5" fill="#00aa6a" class="layer1" data-name="Ellipse 32" rx="17" ry="17.5" transform="translate(73.416 964.773)"/><circle id="Ellipse_36" cx="13" cy="13" r="13" fill="#fcc500" class="layer2" data-name="Ellipse 36" transform="translate(191.416 1076.773)"/><circle id="Ellipse_37" cx="13" cy="13" r="13" fill="#fcc500" class="layer2" data-name="Ellipse 37" transform="translate(77.416 1076.773)"/></g></svg>